<svg xmlns="http://www.w3.org/2000/svg" width="900" height="232" viewBox="0 0 900 232" font-family="ui-monospace,SFMono-Regular,Menlo,monospace" font-size="12">
<rect width="900" height="232" fill="white"/>
<text x="20" y="22" font-size="14" font-weight="bold" fill="#111">debate-swarm forecast trace — 8196 ms, 6 spans</text>
<line x1="250" y1="40" x2="250" y2="210" stroke="#eee"/>
<text x="250" y="224" text-anchor="middle" fill="#999">0ms</text>
<line x1="408" y1="40" x2="408" y2="210" stroke="#eee"/>
<text x="408" y="224" text-anchor="middle" fill="#999">2049ms</text>
<line x1="565" y1="40" x2="565" y2="210" stroke="#eee"/>
<text x="565" y="224" text-anchor="middle" fill="#999">4098ms</text>
<line x1="722" y1="40" x2="722" y2="210" stroke="#eee"/>
<text x="722" y="224" text-anchor="middle" fill="#999">6147ms</text>
<line x1="880" y1="40" x2="880" y2="210" stroke="#eee"/>
<text x="880" y="224" text-anchor="middle" fill="#999">8196ms</text>
<text x="20" y="63" fill="#333">forecast</text>
<rect x="250" y="51" width="630" height="14" rx="3" fill="#111827" opacity="0.85"/>
<text x="886" y="63" fill="#555" font-size="11">8196ms</text>
<text x="20" y="89" fill="#333">  classify</text>
<rect x="250" y="77" width="2" height="14" rx="3" fill="#6b7280" opacity="0.85"/>
<text x="258" y="89" fill="#555" font-size="11">3ms</text>
<text x="20" y="115" fill="#333">  consensus</text>
<rect x="250" y="103" width="630" height="14" rx="3" fill="#2563eb" opacity="0.85"/>
<text x="886" y="115" fill="#555" font-size="11">8193ms</text>
<text x="20" y="141" fill="#333">    llm.query</text>
<rect x="250" y="129" width="630" height="14" rx="3" fill="#3b82f6" opacity="0.85"/>
<text x="886" y="141" fill="#555" font-size="11">8193ms claude-haiku-4-5-20251001 p=0.32</text>
<text x="20" y="167" fill="#333">    llm.query</text>
<rect x="316" y="155" width="138" height="14" rx="3" fill="#3b82f6" opacity="0.85"/>
<text x="460" y="167" fill="#555" font-size="11">1800ms llama-3.3-70b-versatile p=0.54</text>
<text x="20" y="193" fill="#333">    llm.query</text>
<rect x="357" y="181" width="140" height="14" rx="3" fill="#3b82f6" opacity="0.85"/>
<text x="503" y="193" fill="#555" font-size="11">1826ms qwen/qwen3-32b p=0.48</text>
</svg>